<svg width="92" height="83" viewBox="0 0 92 83" fill="none" xmlns="http://www.w3.org/2000/svg">
<path d="M17.4991 42.9068C16.4549 41.8275 14.6387 41.7165 13.4425 42.6585C12.2464 43.6006 12.1233 45.2391 13.1675 46.3181L17.4991 42.9068ZM27.3809 57.0625L25.2151 58.7681C25.7611 59.3325 26.5507 59.6562 27.3809 59.6562C28.2111 59.6562 29.0007 59.3325 29.5467 58.7681L27.3809 57.0625ZM59.6658 27.6433C60.71 26.5642 60.587 24.9257 59.3906 23.9836C58.1946 23.0415 56.3783 23.1526 55.3341 24.2317L59.6658 27.6433ZM40.2745 39.7943C39.2303 40.8733 39.3537 42.5119 40.5497 43.454C41.7457 44.396 43.562 44.285 44.6062 43.2056L40.2745 39.7943ZM37.0765 50.9869C38.1207 49.9079 37.9976 48.2693 36.8015 47.3273C35.6053 46.3852 33.7892 46.4963 32.7449 47.5756L37.0765 50.9869ZM13.1675 46.3181L25.2151 58.7681L29.5467 55.3568L17.4991 42.9068L13.1675 46.3181ZM29.5467 58.7681L37.0765 50.9869L32.7449 47.5756L25.2151 55.3568L29.5467 58.7681ZM44.6062 43.2056L52.136 35.4244L47.8043 32.013L40.2745 39.7943L44.6062 43.2056ZM52.136 35.4244L59.6658 27.6433L55.3341 24.2317L47.8043 32.013L52.136 35.4244Z" fill="#964B00" fill-opacity="0.86"/>
<path d="M76.6675 26.1536L60.2386 41.7161M42.1675 55.3333L43.8097 57.2786L52.0241 49.4974" stroke="#964B00" stroke-opacity="0.86" stroke-width="3.75" stroke-linecap="round" stroke-linejoin="round"/>
</svg>
