<svg width="32" height="32" viewBox="0 0 32 32" fill="none" xmlns="http://www.w3.org/2000/svg">
<path d="M17.5 12.5C13.3579 12.5 10 15.8579 10 20V40C10 44.1423 13.3579 47.5 17.5 47.5H42.5C46.6423 47.5 50 44.1423 50 40V31.25C50 29.8692 51.1193 28.75 52.5 28.75C53.8807 28.75 55 29.8692 55 31.25V40C55 46.9035 49.4035 52.5 42.5 52.5H17.5C10.5964 52.5 5 46.9035 5 40V20C5 13.0964 10.5964 7.5 17.5 7.5H26.25C27.6308 7.5 28.75 8.6193 28.75 10C28.75 11.3807 27.6308 12.5 26.25 12.5H17.5Z" fill="#F5F5F5"/>
<path fill-rule="evenodd" clip-rule="evenodd" d="M47.1078 8.96447C45.1553 7.01184 41.9893 7.01184 40.0368 8.96447L29.2015 19.7998L27.537 29.8637C27.2293 31.7242 28.8425 33.3355 30.7025 33.025L40.7528 31.3485L51.5868 20.5145C53.5395 18.5619 53.5395 15.3961 51.5868 13.4435L47.1078 8.96447ZM32.9833 27.5755L33.8723 22.1999L43.5723 12.5L48.0513 16.979L38.35 26.6802L32.9833 27.5755Z" fill="#F5F5F5"/>
</svg>
